<?xml version="1.0" encoding="UTF-8"?>
<svg xmlns="http://www.w3.org/2000/svg" xmlns:xlink="http://www.w3.org/1999/xlink" width="51px" height="50px" viewBox="0 0 51 50" version="1.1">
<g id="surface1">
<path style=" stroke:none;fill-rule:evenodd;fill:rgb(14.117647%,16.078431%,18.431373%);fill-opacity:1;" d="M 25.425781 0 C 11.363281 0 0 11.457031 0 25.632812 C 0 36.964844 7.28125 46.558594 17.382812 49.953125 C 18.648438 50.207031 19.109375 49.398438 19.109375 48.722656 C 19.109375 48.128906 19.066406 46.089844 19.066406 43.96875 C 11.996094 45.496094 10.523438 40.910156 10.523438 40.910156 C 9.386719 37.941406 7.703125 37.175781 7.703125 37.175781 C 5.386719 35.605469 7.871094 35.605469 7.871094 35.605469 C 10.4375 35.777344 11.785156 38.238281 11.785156 38.238281 C 14.058594 42.144531 17.722656 41.039062 19.195312 40.359375 C 19.40625 38.707031 20.078125 37.558594 20.792969 36.921875 C 15.152344 36.328125 9.21875 34.121094 9.21875 24.277344 C 9.21875 21.472656 10.226562 19.183594 11.828125 17.402344 C 11.574219 16.765625 10.691406 14.132812 12.082031 10.609375 C 12.082031 10.609375 14.226562 9.929688 19.066406 13.242188 C 21.140625 12.679688 23.277344 12.394531 25.425781 12.390625 C 27.570312 12.390625 29.757812 12.691406 31.78125 13.242188 C 36.621094 9.929688 38.765625 10.609375 38.765625 10.609375 C 40.15625 14.132812 39.273438 16.765625 39.019531 17.402344 C 40.660156 19.183594 41.628906 21.472656 41.628906 24.277344 C 41.628906 34.121094 35.695312 36.285156 30.011719 36.921875 C 30.9375 37.730469 31.738281 39.257812 31.738281 41.675781 C 31.738281 45.113281 31.695312 47.871094 31.695312 48.722656 C 31.695312 49.398438 32.160156 50.207031 33.421875 49.953125 C 43.523438 46.554688 50.804688 36.964844 50.804688 25.632812 C 50.847656 11.457031 39.441406 0 25.425781 0 Z M 25.425781 0 "/>
</g>
</svg>
